<svg xmlns="http://www.w3.org/2000/svg" viewBox="0 0 1261.62 896.68" width="1229.62" height="864.68" style="background-color: transparent;"><g id="9a2f34f2-baed-4560-283d-f169bf2afccc_svg" class="tl-centered-g" transform="translate(16.00, 134.14) rotate(0.00, 243.73, 373.27)"><g opacity="1"><path d="M 172.73,60.61 Q 172.73,60.61 171.02,59.41 169.32,58.22 167.52,57.64 165.73,57.06 163.86,57.98 161.99,58.91 157.11,62.26 152.22,65.61 142.88,72.32 133.53,79.03 121.22,89.20 108.91,99.37 95.66,113.92 82.41,128.47 67.64,154.84 52.86,181.21 41.71,210.37 30.57,239.54 23.99,272.94 17.41,306.35 15.93,343.02 14.45,379.70 18.78,416.85 23.11,454.01 33.65,490.59 44.19,527.18 61.10,560.08 78.01,592.99 99.03,619.16 120.04,645.34 144.63,665.42 169.21,685.50 193.25,698.91 217.29,712.33 237.67,719.01 258.05,725.69 278.42,721.17 298.79,716.64 315.27,704.48 331.76,692.32 344.98,673.76 358.20,655.21 369.74,630.81 381.28,606.41 392.29,579.59 403.30,552.78 414.36,526.39 425.43,500.00 435.53,476.64 445.62,453.28 453.68,435.27 461.74,417.27 466.95,405.39 472.16,393.52 475.21,386.43 478.27,379.35 480.10,375.03 481.93,370.70 482.74,367.23 483.54,363.76 483.09,359.12 482.63,354.49 480.98,346.81 479.34,339.13 475.74,327.54 472.15,315.95 465.76,300.71 459.38,285.47 451.93,269.52 444.49,253.58 436.60,238.60 428.71,223.62 420.68,210.07 412.66,196.51 405.40,184.60 398.14,172.69 392.74,163.72 387.33,154.75 382.95,147.41 378.57,140.07 374.52,134.46 370.47,128.85 367.16,125.07 363.86,121.29 360.52,118.40 357.18,115.50 354.05,113.29 350.92,111.07 348.92,109.85 346.92,108.63 345.39,108.04 343.87,107.45 342.51,107.19 341.15,106.93 338.93,106.70 336.71,106.46 332.97,106.32 329.24,106.18 323.70,106.33 318.15,106.48 313.98,106.56 309.81,106.64 306.99,106.95 304.17,107.26 302.10,108.17 300.03,109.07 298.08,110.99 296.12,112.90 293.22,116.23 290.33,119.57 286.63,123.70 282.94,127.84 279.46,131.60 275.99,135.36 273.22,137.95 270.45,140.54 268.30,142.13 266.16,143.72 264.17,144.30 262.19,144.87 259.40,143.59 256.60,142.32 253.09,137.98 249.57,133.64 246.75,127.94 243.92,122.24 242.08,116.69 240.24,111.14 239.46,106.07 238.69,101.00 239.80,96.58 240.92,92.16 243.97,87.97 247.02,83.77 251.68,79.76 256.35,75.75 263.32,71.91 270.30,68.07 278.99,64.62 287.67,61.18 298.25,57.89 308.82,54.60 320.92,52.07 333.03,49.54 344.61,47.81 356.20,46.08 363.12,45.12 370.05,44.17 374.02,43.64 377.99,43.12 380.15,42.70 382.31,42.27 383.35,41.77 384.40,41.27 384.56,41.26 384.72,41.25 384.88,41.27 385.04,41.30 385.19,41.37 385.34,41.43 385.47,41.53 385.60,41.63 385.70,41.76 385.80,41.88 385.87,42.03 385.94,42.18 385.97,42.34 386.00,42.50 385.99,42.66 385.98,42.82 385.94,42.98 385.89,43.13 385.81,43.27 385.73,43.41 385.61,43.53 385.50,43.65 385.36,43.73 385.22,43.82 385.07,43.87 384.91,43.92 383.20,42.24 381.49,40.55 376.09,37.52 370.69,34.48 360.96,30.24 351.23,26.00 335.33,21.14 319.44,16.28 304.42,12.88 289.40,9.48 275.84,7.94 262.28,6.39 251.39,6.13 240.50,5.86 232.50,6.62 224.50,7.38 219.09,8.78 213.68,10.18 210.22,11.72 206.76,13.27 204.38,14.88 202.00,16.49 200.39,17.79 198.78,19.08 198.03,20.20 197.28,21.33 196.52,22.87 195.76,24.42 195.26,25.88 194.77,27.34 194.14,28.98 193.52,30.62 192.61,32.05 191.71,33.48 191.23,34.83 190.75,36.17 190.31,37.53 189.87,38.89 188.88,40.32 187.90,41.76 186.81,43.25 185.72,44.75 184.36,46.28 183.01,47.81 182.25,49.33 181.50,50.84 181.20,52.25 180.91,53.67 180.72,55.00 180.52,56.32 180.19,58.03 179.86,59.73 179.70,61.85 179.53,63.97 179.54,65.40 179.54,66.82 179.46,68.32 179.38,69.83 179.19,72.59 179.00,75.36 179.14,79.20 179.29,83.04 179.92,87.98 180.55,92.91 182.04,98.42 183.53,103.92 185.32,110.76 187.11,117.60 189.05,125.09 191.00,132.59 193.01,141.89 195.01,151.20 196.44,159.63 197.87,168.06 199.19,175.07 200.52,182.08 201.60,186.98 202.69,191.88 203.56,195.12 204.43,198.35 204.92,200.30 205.41,202.26 206.06,204.25 206.72,206.24 207.11,207.89 207.49,209.53 207.64,210.91 207.79,212.30 207.29,214.47 206.80,216.64 205.72,218.96 204.65,221.29 203.40,223.43 202.15,225.57 200.90,227.66 199.65,229.75 198.00,232.24 196.35,234.72 195.54,236.00 194.74,237.27 193.96,238.70 193.18,240.12 192.38,241.69 191.59,243.26 190.80,244.90 190.00,246.55 189.16,248.46 188.31,250.36 187.12,252.31 185.94,254.26 184.83,256.06 183.73,257.87 182.88,259.42 182.03,260.97 181.30,262.40 180.58,263.82 179.92,265.16 179.26,266.50 178.81,267.72 178.37,268.95 177.82,270.25 177.27,271.54 176.69,272.81 176.11,274.07 175.34,276.06 174.58,278.04 174.41,279.80 174.25,281.56 174.28,283.79 174.31,286.02 174.69,289.41 175.06,292.81 175.98,296.13 176.90,299.45 178.46,303.67 180.03,307.89 181.88,312.17 183.72,316.44 185.59,320.29 187.45,324.14 188.85,327.35 190.24,330.56 191.28,332.85 192.32,335.14 193.19,336.79 194.05,338.44 194.86,339.71 195.68,340.98 196.44,342.06 197.21,343.14 198.91,345.09 200.62,347.04 203.30,349.60 205.98,352.16 206.14,352.43 206.31,352.70 206.39,353.01 206.46,353.31 206.43,353.63 206.40,353.94 206.27,354.23 206.15,354.52 205.93,354.76 205.72,354.99 205.44,355.14 205.16,355.30 204.85,355.35 204.54,355.41 204.23,355.36 203.91,355.32 203.63,355.17 203.35,355.03 203.13,354.80 202.91,354.58 202.77,354.29 202.63,354.01 202.59,353.69 202.55,353.38 202.61,353.07 202.68,352.76 202.84,352.49 202.99,352.21 203.23,352.00 203.47,351.79 203.76,351.67 204.05,351.55 204.37,351.53 204.69,351.50 204.99,351.58 205.30,351.66 205.56,351.84 205.83,352.01 206.02,352.26 206.22,352.51 206.33,352.81 206.43,353.10 206.44,353.42 206.44,353.74 206.35,354.04 206.25,354.34 206.06,354.60 205.88,354.85 205.62,355.03 205.36,355.21 205.06,355.30 204.75,355.39 204.44,355.38 204.12,355.37 203.82,355.26 203.53,355.15 203.28,354.95 203.04,354.74 203.04,354.74 203.04,354.74 200.54,352.14 198.04,349.53 196.27,347.17 194.49,344.82 193.84,343.61 193.20,342.40 192.49,341.01 191.78,339.62 190.90,337.92 190.02,336.22 188.92,333.94 187.81,331.66 186.35,328.54 184.89,325.43 182.89,321.58 180.88,317.73 178.85,313.46 176.81,309.18 174.99,304.92 173.16,300.66 171.90,297.25 170.64,293.84 169.82,289.89 169.00,285.95 169.09,284.18 169.18,282.40 169.39,280.99 169.60,279.58 170.14,277.91 170.68,276.24 171.68,274.31 172.68,272.38 173.31,271.19 173.94,270.00 174.56,268.80 175.17,267.61 175.79,266.29 176.42,264.96 177.18,263.67 177.94,262.37 178.76,260.99 179.58,259.60 180.47,258.05 181.36,256.50 182.37,254.65 183.38,252.79 184.34,250.99 185.30,249.18 185.99,247.14 186.68,245.10 187.36,243.37 188.04,241.64 188.74,239.95 189.43,238.26 190.18,236.63 190.92,235.00 191.71,233.61 192.49,232.22 193.31,230.80 194.12,229.39 194.77,228.25 195.42,227.11 196.67,225.02 197.93,222.93 199.08,221.04 200.23,219.14 201.23,217.03 202.23,214.92 202.73,213.63 203.23,212.34 203.34,211.03 203.44,209.72 203.52,208.28 203.60,206.83 203.42,204.82 203.24,202.80 202.74,200.88 202.25,198.95 201.35,195.66 200.44,192.38 199.33,187.45 198.21,182.52 196.85,175.50 195.49,168.47 194.03,160.10 192.56,151.73 190.51,142.50 188.45,133.26 186.43,125.80 184.40,118.33 182.50,111.54 180.60,104.76 178.91,99.09 177.22,93.41 176.36,88.37 175.50,83.32 175.07,79.34 174.63,75.35 174.45,72.57 174.27,69.79 174.26,67.31 174.24,64.84 174.42,63.33 174.59,61.82 174.69,60.45 174.79,59.08 174.89,57.48 174.99,55.87 175.05,54.07 175.11,52.27 175.60,50.29 176.09,48.30 176.83,46.83 177.58,45.35 178.76,43.98 179.94,42.61 181.07,41.16 182.20,39.70 183.39,38.49 184.57,37.28 185.15,35.92 185.72,34.56 186.57,32.68 187.42,30.80 188.58,29.34 189.74,27.87 190.41,26.72 191.08,25.56 191.92,24.15 192.76,22.73 194.01,21.22 195.25,19.70 196.33,18.55 197.41,17.39 199.10,16.04 200.78,14.69 203.32,12.98 205.87,11.28 209.50,9.67 213.13,8.07 218.71,6.64 224.29,5.20 232.42,4.43 240.55,3.67 251.54,3.93 262.53,4.19 276.21,5.75 289.89,7.31 304.99,10.72 320.10,14.13 336.11,19.02 352.13,23.92 361.98,28.19 371.83,32.47 378.11,36.87 384.40,41.27 384.56,41.26 384.72,41.25 384.88,41.27 385.04,41.30 385.19,41.37 385.34,41.43 385.47,41.53 385.60,41.63 385.70,41.76 385.80,41.88 385.87,42.03 385.94,42.18 385.97,42.34 386.00,42.50 385.99,42.66 385.98,42.82 385.94,42.98 385.89,43.13 385.81,43.27 385.73,43.41 385.61,43.53 385.50,43.65 385.36,43.73 385.22,43.82 385.07,43.87 384.91,43.92 383.82,44.16 382.73,44.41 380.50,44.84 378.28,45.27 374.31,45.80 370.35,46.32 363.43,47.28 356.52,48.23 345.00,49.95 333.47,51.67 321.47,54.17 309.46,56.68 298.97,59.95 288.48,63.21 279.91,66.60 271.35,69.98 264.55,73.70 257.76,77.42 253.27,81.25 248.78,85.08 245.90,88.93 243.02,92.77 241.95,96.76 240.88,100.74 241.62,105.59 242.36,110.44 244.15,115.84 245.95,121.24 248.65,126.73 251.36,132.22 254.54,136.25 257.71,140.29 259.85,141.44 261.99,142.59 263.45,142.27 264.91,141.95 266.93,140.44 268.95,138.93 271.66,136.40 274.37,133.87 277.83,130.12 281.29,126.37 284.97,122.24 288.65,118.12 291.61,114.70 294.57,111.28 296.83,109.15 299.09,107.02 301.49,106.00 303.89,104.98 306.82,104.64 309.76,104.29 313.92,104.18 318.08,104.07 323.70,103.87 329.31,103.67 333.13,103.76 336.94,103.85 339.40,104.04 341.86,104.22 343.36,104.72 344.85,105.21 346.45,106.00 348.04,106.78 350.11,108.04 352.18,109.30 355.39,111.58 358.60,113.86 362.04,116.86 365.49,119.86 368.86,123.72 372.23,127.57 376.33,133.26 380.44,138.95 384.82,146.29 389.19,153.63 394.60,162.59 400.00,171.56 407.26,183.48 414.52,195.40 422.58,209.01 430.63,222.61 438.54,237.64 446.45,252.66 453.92,268.64 461.38,284.63 467.80,299.97 474.23,315.31 477.84,326.99 481.46,338.67 483.13,346.48 484.79,354.29 485.23,359.25 485.66,364.22 484.80,367.88 483.93,371.55 482.10,375.88 480.27,380.21 477.21,387.30 474.15,394.39 468.93,406.27 463.72,418.16 455.67,436.15 447.62,454.14 437.52,477.49 427.43,500.84 416.37,527.22 405.31,553.60 394.28,580.47 383.25,607.34 371.61,631.90 359.98,656.47 346.52,675.26 333.07,694.05 316.20,706.39 299.33,718.74 278.43,723.25 257.53,727.77 236.88,721.00 216.24,714.24 192.03,700.72 167.83,687.20 143.08,666.96 118.34,646.72 97.20,620.36 76.06,594.00 59.06,560.90 42.06,527.80 31.47,491.04 20.88,454.27 16.53,416.94 12.19,379.61 13.67,342.76 15.15,305.91 21.77,272.31 28.38,238.71 39.56,209.37 50.75,180.03 65.65,153.42 80.55,126.80 93.89,112.07 107.23,97.35 119.56,87.05 131.88,76.76 141.18,69.95 150.48,63.13 155.52,59.50 160.55,55.88 163.28,54.64 166.00,53.41 167.39,53.77 168.77,54.12 169.89,54.84 171.02,55.56 172.82,56.61 174.62,57.66 174.79,57.79 174.95,57.93 175.08,58.10 175.20,58.27 175.28,58.46 175.37,58.66 175.40,58.87 175.43,59.08 175.41,59.29 175.39,59.50 175.33,59.70 175.26,59.90 175.14,60.08 175.03,60.26 174.87,60.40 174.72,60.55 174.54,60.65 174.35,60.76 174.15,60.81 173.94,60.87 173.73,60.88 173.52,60.89 173.31,60.84 173.11,60.80 172.92,60.71 Z" fill="#1d1d1d" stroke="#1d1d1d" stroke-width="1" stroke-linejoin="round" stroke-linecap="round" pointer-events="none"/></g></g><g id="128d9c91-5bf5-4272-2359-0bde24001720_svg" class="tl-centered-g" transform="translate(194.46, 487.21) rotate(358.40, 64.79, 180.55)"><g opacity="1"><path d="M 31.24,0.87 Q 31.24,0.87 30.90,1.78 30.57,2.68 29.83,4.37 29.08,6.06 28.10,8.02 27.11,9.99 26.54,11.22 25.96,12.46 25.03,14.14 24.09,15.81 22.86,17.74 21.62,19.66 20.02,21.95 18.41,24.24 16.88,26.45 15.36,28.65 13.86,30.83 12.37,33.02 10.90,35.20 9.43,37.37 8.17,39.31 6.91,41.25 6.00,42.84 5.09,44.42 4.37,46.30 3.66,48.18 3.39,49.59 3.11,50.99 2.86,52.52 2.60,54.04 3.49,55.35 4.37,56.65 6.85,58.88 9.33,61.10 13.25,63.95 17.16,66.80 21.68,70.02 26.19,73.24 29.98,76.11 33.76,78.97 36.33,80.94 38.91,82.91 40.73,84.55 42.55,86.19 43.84,87.28 45.13,88.37 46.22,89.17 47.31,89.96 48.93,91.08 50.55,92.19 51.64,92.96 52.74,93.74 53.41,95.67 54.07,97.61 53.77,98.89 53.47,100.16 52.78,101.59 52.09,103.01 50.94,104.69 49.80,106.38 48.69,108.18 47.57,109.99 46.27,112.00 44.96,114.01 43.65,115.87 42.33,117.72 40.13,120.51 37.94,123.30 34.60,126.49 31.26,129.68 28.29,132.41 25.33,135.14 22.95,137.24 20.58,139.33 19.16,140.62 17.74,141.90 16.55,143.41 15.35,144.92 14.88,146.28 14.41,147.64 14.32,149.26 14.23,150.89 14.61,152.51 14.99,154.14 16.58,156.27 18.18,158.40 24.30,163.00 30.43,167.59 36.61,172.22 42.80,176.86 48.53,181.03 54.26,185.20 58.93,188.65 63.60,192.10 67.11,194.97 70.62,197.84 73.27,200.00 75.91,202.17 77.86,203.75 79.81,205.32 81.08,206.26 82.35,207.20 83.74,208.67 85.13,210.14 85.01,212.36 84.89,214.59 83.85,216.64 82.82,218.69 81.30,220.04 79.77,221.39 77.67,223.29 75.56,225.19 72.37,228.28 69.19,231.37 66.44,234.22 63.69,237.07 61.65,239.17 59.61,241.26 58.25,242.78 56.88,244.29 55.95,245.55 55.01,246.81 54.30,247.91 53.58,249.01 53.01,250.72 52.43,252.42 52.11,253.82 51.79,255.21 51.99,256.76 52.18,258.31 54.68,261.97 57.19,265.63 60.68,269.42 64.17,273.21 69.06,278.41 73.94,283.61 79.65,289.62 85.36,295.63 91.16,302.00 96.96,308.36 102.70,314.50 108.43,320.64 112.72,325.04 117.01,329.43 119.75,332.12 122.49,334.81 124.13,336.43 125.77,338.05 126.78,339.02 127.80,339.99 128.88,341.42 129.97,342.84 130.73,344.41 131.48,345.98 131.72,347.51 131.96,349.05 131.03,351.01 130.10,352.98 128.27,354.95 126.43,356.92 125.53,357.85 124.62,358.79 122.24,360.97 119.86,363.15 119.50,363.34 119.13,363.52 118.72,363.58 118.32,363.64 117.91,363.56 117.51,363.49 117.15,363.29 116.79,363.09 116.51,362.79 116.24,362.48 116.07,362.11 115.91,361.73 115.87,361.32 115.83,360.91 115.93,360.51 116.03,360.11 116.25,359.76 116.46,359.42 116.78,359.16 117.10,358.90 117.49,358.75 117.87,358.61 118.28,358.60 118.69,358.58 119.09,358.70 119.48,358.82 119.81,359.05 120.15,359.29 120.39,359.62 120.63,359.96 120.76,360.35 120.88,360.74 120.87,361.15 120.86,361.56 120.72,361.95 120.59,362.33 120.33,362.66 120.07,362.98 119.73,363.20 119.39,363.42 118.99,363.53 118.59,363.63 118.18,363.60 117.77,363.57 117.39,363.41 117.01,363.25 116.71,362.98 116.40,362.70 116.19,362.35 115.99,361.99 115.91,361.59 115.83,361.18 115.88,360.78 115.93,360.37 116.11,360.00 116.29,359.63 116.58,359.34 116.87,359.05 116.87,359.05 116.87,359.05 118.18,357.95 119.50,356.86 121.12,355.17 122.75,353.47 124.36,351.66 125.97,349.85 126.61,348.39 127.24,346.93 126.97,345.60 126.69,344.27 126.21,343.06 125.73,341.84 124.93,340.78 124.13,339.72 122.47,338.13 120.82,336.54 118.03,333.86 115.24,331.19 110.88,326.81 106.53,322.43 100.72,316.34 94.92,310.25 89.05,303.99 83.19,297.72 77.37,291.82 71.55,285.92 66.52,280.87 61.49,275.82 57.66,272.05 53.82,268.29 51.39,265.48 48.96,262.67 47.88,260.03 46.80,257.39 47.16,255.75 47.51,254.11 48.21,252.44 48.91,250.78 49.97,248.95 51.02,247.12 51.90,246.07 52.79,245.03 53.85,243.80 54.92,242.58 56.26,240.98 57.60,239.37 59.55,237.21 61.51,235.04 64.18,232.05 66.85,229.06 69.91,225.82 72.97,222.58 74.94,220.43 76.91,218.29 78.52,216.42 80.14,214.56 81.07,213.07 81.99,211.59 81.31,210.45 80.62,209.31 79.47,208.26 78.31,207.22 76.33,205.67 74.34,204.12 71.66,202.01 68.98,199.89 65.47,197.13 61.96,194.37 57.23,191.03 52.50,187.68 46.66,183.63 40.83,179.57 34.51,175.11 28.20,170.65 21.52,165.93 14.85,161.20 12.57,158.66 10.30,156.11 9.84,153.90 9.37,151.69 9.58,150.39 9.78,149.08 10.28,147.55 10.78,146.01 11.81,144.39 12.84,142.78 14.48,141.44 16.12,140.10 17.55,138.82 18.98,137.54 21.31,135.43 23.63,133.33 26.54,130.57 29.45,127.81 32.59,124.72 35.74,121.62 37.79,118.85 39.84,116.08 40.99,114.21 42.14,112.34 43.23,110.29 44.32,108.25 45.23,106.25 46.14,104.26 47.45,101.49 48.76,98.73 48.50,96.98 48.24,95.23 46.78,93.80 45.33,92.36 44.30,91.40 43.27,90.44 42.06,89.28 40.86,88.13 39.07,86.62 37.28,85.11 34.65,83.23 32.02,81.35 28.19,78.62 24.36,75.90 19.74,72.84 15.12,69.78 10.92,67.04 6.73,64.31 3.90,62.22 1.06,60.13 -0.30,58.68 -1.68,57.23 -1.78,55.24 -1.88,53.26 -1.32,51.49 -0.76,49.73 -0.08,48.18 0.60,46.64 1.73,44.88 2.87,43.13 3.83,41.52 4.79,39.91 6.00,37.92 7.22,35.93 8.62,33.71 10.02,31.49 11.41,29.24 12.80,26.99 14.19,24.70 15.58,22.42 16.94,20.11 18.30,17.81 19.22,15.89 20.13,13.96 20.79,12.23 21.44,10.50 22.01,9.10 22.58,7.70 23.63,5.69 24.69,3.67 25.48,2.27 26.26,0.87 26.68,0.00 27.10,-0.87 27.23,-1.10 27.37,-1.34 27.55,-1.53 27.74,-1.73 27.97,-1.87 28.20,-2.02 28.45,-2.11 28.71,-2.19 28.98,-2.22 29.25,-2.24 29.52,-2.20 29.78,-2.16 30.03,-2.05 30.28,-1.94 30.50,-1.78 30.72,-1.62 30.89,-1.41 31.06,-1.20 31.18,-0.96 31.30,-0.72 31.35,-0.45 31.41,-0.19 31.40,0.08 31.39,0.35 31.31,0.61 Z" fill="#1d1d1d" stroke="#1d1d1d" stroke-width="1" stroke-linejoin="round" stroke-linecap="round" pointer-events="none"/></g></g><g id="6bc5f66a-fa94-4272-0167-8137e2cd5100_svg" class="tl-centered-g" transform="translate(248.27, 154.03) rotate(0.00, 2.86, 4.24)"><g opacity="1"><path d="M 8.09,1.24 Q 8.09,1.24 7.32,2.56 6.54,3.89 5.79,5.02 5.05,6.15 3.48,8.10 1.91,10.04 1.61,10.31 1.31,10.57 0.94,10.73 0.57,10.88 0.17,10.91 -0.22,10.94 -0.61,10.84 -1.00,10.74 -1.33,10.52 -1.67,10.30 -1.91,9.98 -2.16,9.67 -2.30,9.29 -2.43,8.91 -2.44,8.51 -2.44,8.11 -2.32,7.73 -2.20,7.35 -1.96,7.03 -1.73,6.71 -1.40,6.48 -1.07,6.25 -0.69,6.13 -0.30,6.02 0.09,6.03 0.49,6.05 0.86,6.19 1.24,6.33 1.54,6.59 1.85,6.84 2.07,7.18 2.28,7.52 2.37,7.91 2.46,8.30 2.43,8.70 2.39,9.10 2.23,9.46 2.06,9.83 1.79,10.12 1.52,10.42 1.17,10.61 0.82,10.81 0.43,10.88 0.04,10.95 -0.35,10.89 -0.75,10.83 -1.10,10.65 -1.46,10.47 -1.74,10.18 -2.02,9.90 -2.19,9.53 -2.37,9.17 -2.42,8.78 -2.47,8.38 -2.39,7.99 -2.31,7.60 -2.11,7.25 -1.91,6.90 -1.91,6.90 -1.91,6.90 -1.03,5.75 -0.16,4.60 0.94,3.06 2.06,1.53 2.71,0.14 3.36,-1.24 3.54,-1.50 3.72,-1.77 3.97,-1.98 4.21,-2.20 4.49,-2.34 4.78,-2.49 5.09,-2.57 5.40,-2.65 5.73,-2.65 6.05,-2.65 6.36,-2.57 6.67,-2.49 6.96,-2.34 7.24,-2.19 7.48,-1.98 7.73,-1.77 7.91,-1.50 8.09,-1.24 8.21,-0.94 8.32,-0.63 8.36,-0.31 8.40,0.00 8.36,0.32 8.32,0.64 8.21,0.94 Z" fill="#1d1d1d" stroke="#1d1d1d" stroke-width="1" stroke-linejoin="round" stroke-linecap="round" pointer-events="none"/></g></g><g id="2183a233-f95b-46d0-174e-09e358cc7754_svg" class="tl-centered-g" transform="translate(469.55, 16.00) rotate(0.00, 1.56, 1.24)"><g opacity="1"><path d="M -3.73,-2.25 Q -3.73,-2.25 -2.17,-3.49 -0.62,-4.74 0.23,-5.21 1.08,-5.69 2.05,-5.86 3.01,-6.04 3.98,-5.90 4.94,-5.76 5.82,-5.32 6.69,-4.88 7.38,-4.18 8.06,-3.48 8.49,-2.60 8.92,-1.72 9.04,-0.75 9.16,0.21 8.97,1.17 8.78,2.13 8.29,2.97 7.80,3.82 7.07,4.47 6.34,5.12 5.43,5.49 4.53,5.87 3.56,5.95 2.58,6.02 1.63,5.77 0.69,5.53 -0.12,4.99 -0.94,4.46 -1.55,3.69 -2.15,2.93 -2.48,2.01 -2.81,1.08 -2.83,0.11 -2.85,-0.86 -2.56,-1.79 -2.26,-2.73 -1.68,-3.52 -1.11,-4.31 -0.31,-4.87 0.48,-5.43 1.42,-5.71 2.36,-5.99 3.33,-5.96 4.31,-5.92 5.23,-5.58 6.14,-5.23 6.90,-4.61 7.66,-3.99 8.18,-3.17 8.70,-2.34 8.92,-1.39 9.15,-0.43 9.06,0.53 8.98,1.50 8.58,2.40 8.19,3.29 7.53,4.02 6.87,4.74 6.87,4.74 6.87,4.74 5.30,5.96 3.73,7.19 3.11,7.57 2.49,7.95 1.80,8.17 1.11,8.39 0.38,8.43 -0.33,8.48 -1.05,8.35 -1.76,8.22 -2.43,7.93 -3.09,7.63 -3.66,7.19 -4.24,6.74 -4.69,6.17 -5.14,5.60 -5.44,4.94 -5.74,4.28 -5.87,3.57 -6.01,2.86 -5.96,2.13 -5.92,1.41 -5.71,0.71 -5.50,0.02 -5.12,-0.59 -4.75,-1.22 -4.24,-1.73 Z" fill="#1d1d1d" stroke="#1d1d1d" stroke-width="2.5" stroke-linejoin="round" stroke-linecap="round" pointer-events="none"/></g></g><g id="e2b41f4f-7786-4755-3441-205264355be7_svg" class="tl-centered-g" transform="translate(391.03, 83.48) rotate(0.00, 0.50, 0.61)"><circle r="6" fill="#1d1d1d" stroke="#1d1d1d" pointer-events="all" opacity="1"/></g><g text-align="center" text-anchor="middle" fill="#1d1d1d" transform="translate(508.62, 421.76) rotate(0.00, 368.50, 69.00)"><text y="24" letter-spacing="-1.44" font-size="48px" font-family="monospace" text-align="center" alignment-baseline="central" transform="scale(2.6579749685382295)" x="138.63">loading...</text></g></svg>