<?xml version="1.0" standalone="no"?>
<!DOCTYPE svg PUBLIC "-//W3C//DTD SVG 20010904//EN"
 "http://www.w3.org/TR/2001/REC-SVG-20010904/DTD/svg10.dtd">
<svg version="1.0" xmlns="http://www.w3.org/2000/svg"
 width="988.000000pt" height="129.000000pt" viewBox="0 0 988.000000 129.000000"
 preserveAspectRatio="xMidYMid meet">
<!-- Created by potrace 1.16, written by Peter Selinger 2001-2019 -->
<metadata>
Matthew Via Music
</metadata>
<g transform="translate(0.000000,129.000000) scale(0.100000,-0.100000)"
fill="#000000" stroke="none">
<path d="M5200 640 l0 -640 2340 0 2340 0 0 640 0 640 -2340 0 -2340 0 0 -640z
m3097 449 c114 -16 114 -15 112 -110 l-2 -79 -27 0 c-15 0 -47 7 -70 15 -23 8
-67 15 -96 15 -45 0 -59 -5 -86 -29 -29 -26 -31 -32 -23 -57 7 -18 32 -42 70
-67 33 -21 96 -62 140 -90 101 -66 135 -116 142 -211 7 -86 -10 -145 -59 -200
-56 -64 -107 -81 -243 -81 -80 0 -127 5 -172 19 l-63 19 0 89 c0 85 1 88 23
88 12 0 46 -9 74 -20 92 -35 143 -43 191 -29 42 12 82 48 82 75 0 27 -61 81
-152 134 -166 98 -207 151 -208 270 0 83 12 126 49 171 34 41 80 66 144 78 60
12 86 12 174 0z m1381 -14 l52 -16 0 -89 0 -90 -27 4 c-16 2 -48 13 -73 25
-109 50 -188 14 -246 -114 -23 -50 -28 -74 -28 -145 -1 -103 22 -173 77 -236
54 -62 95 -72 172 -44 33 12 75 24 93 27 l33 5 -3 -87 -3 -88 -40 -15 c-25
-10 -77 -16 -140 -16 -88 -1 -107 2 -155 25 -140 67 -210 207 -210 424 0 247
101 406 284 445 53 12 147 5 214 -15z m-3045 -4 c20 -8 34 -39 92 -208 37
-109 71 -202 75 -206 4 -4 40 87 80 202 l73 210 44 7 c23 3 58 3 77 0 29 -6
34 -11 40 -44 8 -48 8 -736 0 -784 l-7 -38 -73 0 c-41 0 -75 1 -75 3 -1 1 -4
83 -8 181 l-6 179 -35 -102 -35 -102 -80 3 -79 3 -36 100 -35 100 -5 -180 -5
-180 -70 0 -70 0 -3 427 -2 427 22 4 c42 8 97 7 121 -2z m746 3 l31 -6 0 -310
c0 -346 3 -363 63 -391 43 -21 51 -21 91 -2 60 29 61 30 66 377 3 174 9 320
13 325 11 11 133 11 144 0 4 -5 8 -151 8 -325 0 -353 -6 -392 -66 -465 -45
-55 -100 -79 -190 -85 -137 -8 -235 39 -275 131 -17 38 -19 79 -22 394 l-3
351 23 5 c38 7 83 7 117 1z m1690 0 l31 -6 0 -79 0 -79 -85 0 -85 0 0 -265 0
-265 54 0 c29 0 68 -3 85 -6 l32 -7 -3 -76 -3 -76 -250 0 -250 0 -3 76 -3 76
32 7 c17 3 56 6 85 6 l54 0 0 265 0 264 -82 3 -83 3 -3 77 c-3 73 -2 77 20 81
37 7 422 8 457 1z m-3695 -423 c3 -4 23 -63 44 -129 21 -67 41 -124 44 -127 3
-4 22 47 42 112 42 136 47 147 70 151 47 9 46 -1 -18 -205 l-61 -198 -34 0
-33 0 -59 190 c-32 105 -59 196 -59 203 0 14 56 17 64 3z m554 -23 c3 -27 2
-28 -42 -28 l-46 0 0 -145 0 -145 45 0 c43 0 45 -1 45 -30 l0 -30 -120 0 -120
0 0 30 c0 28 2 30 40 30 l40 0 0 145 0 145 -40 0 c-38 0 -40 2 -40 30 l0 31
118 -3 117 -3 3 -27z m269 20 c9 -12 123 -374 123 -391 0 -4 -15 -7 -34 -7
-31 0 -36 4 -48 43 l-15 42 -60 3 -60 3 -13 -46 c-12 -42 -15 -45 -46 -45 -19
0 -34 2 -34 4 0 9 110 362 120 384 11 24 51 30 67 10z"/>
<path d="M130 635 l0 -435 90 0 89 0 3 137 3 138 24 -63 23 -62 92 0 92 0 19
56 c10 30 22 57 27 60 4 3 8 -56 8 -130 l0 -136 95 0 95 0 0 435 0 436 -97 -3
-97 -3 -65 -187 c-36 -102 -68 -185 -72 -182 -3 2 -35 87 -70 189 l-64 185
-97 0 -98 0 0 -435z m231 186 c43 -123 80 -226 83 -229 3 -3 8 1 11 9 25 71
155 444 155 446 0 2 29 3 65 3 l65 0 0 -405 0 -406 -62 3 -63 3 -5 224 -5 224
-51 -144 -51 -144 -64 -3 -64 -3 -49 138 c-27 76 -52 142 -57 148 -5 5 -9 -88
-9 -218 l0 -227 -55 0 -55 0 0 405 0 406 66 -3 66 -3 79 -224z"/>
<path d="M1101 943 c-135 -433 -203 -664 -198 -670 4 -3 8 -4 10 -2 2 2 57
178 122 392 l119 387 65 0 66 0 123 -398 c67 -218 122 -401 122 -405 0 -4 -30
-7 -67 -5 l-68 3 -29 83 -28 82 -124 0 -123 0 -22 -72 c-13 -40 -27 -79 -32
-86 -6 -7 -34 -12 -73 -12 -57 0 -64 -2 -64 -20 0 -19 7 -20 93 -20 l93 0 24
83 25 82 95 0 94 0 26 -82 25 -83 97 0 97 0 -3 57 c-2 51 -61 251 -227 781
l-11 32 -93 0 -94 0 -40 -127z"/>
<path d="M1548 1025 c-3 -25 -3 -65 -1 -90 l6 -44 111 -3 111 -3 3 -342 2
-343 94 0 93 0 7 53 c3 28 6 184 6 345 l0 292 115 0 115 0 0 90 0 90 -329 0
-328 0 -5 -45z m612 -35 l0 -60 -115 0 -115 0 -2 -342 -3 -343 -65 0 -65 0 -3
342 -2 342 -113 3 -112 3 -3 58 -3 57 301 0 300 0 0 -60z"/>
<path d="M2300 980 l0 -90 115 0 115 0 0 -299 c0 -164 3 -319 6 -345 l7 -46
93 0 94 0 2 343 3 342 113 3 112 3 0 89 0 90 -330 0 -330 0 0 -90z m618 13
l-3 -58 -117 -3 -118 -3 0 -345 0 -345 -62 3 -63 3 -3 343 -2 342 -115 0 -115
0 0 60 0 60 300 0 301 0 -3 -57z"/>
<path d="M3076 1018 c-8 -69 -8 -697 0 -765 l7 -53 93 0 94 0 2 177 3 178 93
3 92 3 0 -181 0 -180 100 0 100 0 0 435 0 435 -100 0 -100 0 0 -165 0 -165
-95 0 -95 0 0 165 0 165 -94 0 -93 0 -7 -52z m154 -133 l0 -165 125 0 125 0 0
165 0 165 65 0 65 0 0 -405 0 -405 -65 0 -65 0 0 185 0 185 -125 0 -125 0 -2
-182 -3 -183 -65 0 -65 0 -3 403 -2 402 70 0 70 0 0 -165z"/>
<path d="M3800 635 l0 -435 254 0 254 0 4 48 c1 26 2 66 0 90 l-3 42 -155 0
-154 0 0 85 0 85 134 0 133 0 5 45 c3 25 3 65 0 90 l-5 45 -133 0 -134 0 0 80
0 80 104 0 c57 0 124 3 148 6 44 6 46 8 51 44 3 21 2 59 0 84 l-6 46 -248 0
-249 0 0 -435z m460 360 l0 -55 -155 0 -155 0 0 -115 0 -115 140 0 140 0 0
-55 0 -55 -140 0 -140 0 0 -120 0 -120 160 0 161 0 -3 -57 -3 -58 -225 0 -225
0 -3 403 -2 402 225 0 225 0 0 -55z"/>
<path d="M4430 1015 c0 -49 70 -693 86 -783 l5 -33 91 3 92 3 27 155 c15 85
29 157 30 160 1 3 16 -67 33 -155 l31 -160 92 -3 92 -3 6 33 c12 72 86 707 90
770 l3 68 -83 0 c-97 0 -88 12 -106 -140 -13 -117 -17 -114 -44 38 l-18 103
-91 -3 -91 -3 -16 -93 c-9 -51 -18 -95 -21 -98 -3 -2 -8 26 -12 63 -4 38 -9
83 -12 101 l-6 32 -89 0 -89 0 0 -55z m149 -72 c7 -60 17 -152 23 -206 6 -53
13 -96 15 -94 2 2 17 82 33 178 17 96 33 186 36 202 5 26 8 27 64 27 47 0 60
-3 64 -17 7 -24 76 -392 76 -406 0 -6 2 -8 5 -6 3 4 55 398 55 423 0 3 25 6
55 6 48 0 55 -3 55 -19 0 -29 -90 -764 -95 -779 -5 -15 -111 -17 -120 -2 -4 6
-26 114 -51 242 -38 200 -54 268 -54 232 0 -22 -80 -466 -85 -474 -9 -15 -115
-12 -120 3 -2 6 -23 172 -45 367 -22 195 -43 372 -46 393 l-6 37 65 0 64 0 12
-107z"/>
<path d="M1175 683 c-20 -65 -38 -126 -41 -135 -5 -16 3 -18 80 -18 47 0 86 3
86 6 0 11 -81 264 -85 264 -2 0 -20 -53 -40 -117z"/>
</g>
</svg>
